<?xml version="1.0" encoding="UTF-8"?>
<!DOCTYPE svg PUBLIC "-//W3C//DTD SVG 1.1//EN" "http://www.w3.org/Graphics/SVG/1.1/DTD/svg11.dtd">
<!-- Creator: CorelDRAW 2020 (64-Bit) -->
<svg xmlns="http://www.w3.org/2000/svg" xml:space="preserve" width="0.0952165in" height="0.18237in" version="1.1" style="shape-rendering:geometricPrecision; text-rendering:geometricPrecision; image-rendering:optimizeQuality; fill-rule:evenodd; clip-rule:evenodd"
viewBox="0 0 5.31 10.17"
 xmlns:xlink="http://www.w3.org/1999/xlink"
 xmlns:xodm="http://www.corel.com/coreldraw/odm/2003">
 <defs>
  <style type="text/css">
   <![CDATA[
    .fil0 {fill:dimgray}
   ]]>
  </style>
 </defs>
 <g id="Layer_x0020_1">
  <metadata id="CorelCorpID_0Corel-Layer"/>
  <path class="fil0" d="M4.23 1.72c0.31,-0.01 0.63,-0 0.95,-0 0.04,0 0.08,0 0.13,0l0 -1.64c-0.17,-0.02 -0.34,-0.04 -0.52,-0.05 -0.32,-0.01 -0.65,-0.03 -0.97,-0.02 -0.49,0.01 -0.96,0.13 -1.37,0.42 -0.47,0.34 -0.73,0.81 -0.82,1.37 -0.04,0.23 -0.05,0.47 -0.06,0.7 -0.01,0.37 -0,0.74 -0,1.1l0 0.14 -1.57 0 0 1.83 1.56 0 0 4.6 1.91 0 0 -4.59 1.55 0c0.08,-0.61 0.16,-1.21 0.24,-1.84 -0.12,0 -0.24,-0 -0.35,0 -0.44,0 -1.46,0 -1.46,0 0,0 0,-0.91 0.02,-1.3 0.02,-0.54 0.34,-0.7 0.77,-0.72z"/>
 </g>
</svg>
