<?xml version="1.0" standalone="no"?>
<!DOCTYPE svg PUBLIC "-//W3C//DTD SVG 20010904//EN"
 "http://www.w3.org/TR/2001/REC-SVG-20010904/DTD/svg10.dtd">
<svg version="1.0" xmlns="http://www.w3.org/2000/svg"
 width="4961.000000pt" height="4961.000000pt" viewBox="0 0 4961.000000 4961.000000"
 preserveAspectRatio="xMidYMid meet">

<g transform="translate(0.000000,4961.000000) scale(0.100000,-0.100000)"
fill="#000000" stroke="none">
<path d="M28327 42118 c-8 -12 -478 -846 -1045 -1853 -1070 -1902 -11508
-20449 -11941 -21217 -135 -241 -249 -434 -253 -430 -4 4 -1593 2826 -3532
6272 l-3525 6265 -632 3 c-599 2 -631 1 -625 -15 4 -10 1401 -2495 3105 -5523
1704 -3028 3573 -6348 4152 -7377 580 -1030 1058 -1872 1063 -1870 5 2 252
435 549 962 2308 4101 6878 12221 9517 16912 1746 3103 3177 5642 3180 5643 6
0 590 -1040 604 -1074 7 -19 -1029 -1868 -6919 -12334 -3810 -6772 -6930
-12312 -6934 -12312 -3 1 -522 917 -1152 2038 -630 1120 -2781 4943 -4779
8495 l-3635 6457 -633 0 c-348 0 -631 -3 -629 -7 3 -5 2112 -3752 4687 -8328
2576 -4576 5010 -8900 5409 -9609 399 -709 731 -1287 736 -1285 10 3 1661
2937 10590 18805 2145 3813 3903 6929 3908 6925 4 -4 144 -250 311 -546 277
-489 303 -540 291 -559 -7 -12 -3358 -5965 -7445 -13231 -4088 -7265 -7483
-13299 -7544 -13407 -61 -108 -114 -194 -118 -190 -4 4 -1375 2439 -3048 5412
-1673 2973 -4385 7793 -6028 10713 l-2986 5307 -634 0 -633 0 29 -52 c17 -29
3014 -5356 6662 -11838 3647 -6482 6634 -11788 6638 -11792 9 -9 16377 29078
16376 29101 0 13 -3100 5537 -3120 5559 -1 2 -9 -7 -17 -20z m1597 -2815 c839
-1492 1527 -2716 1528 -2720 5 -14 -16356 -29083 -16364 -29075 -11 11 -13298
23626 -13298 23635 0 4 276 7 613 7 l612 0 6035 -10725 c3319 -5899 6039
-10724 6044 -10722 10 3 15115 26839 15123 26867 5 18 -613 1115 -628 1115 -6
0 -3269 -5790 -7252 -12868 -5622 -9991 -7243 -12865 -7252 -12855 -13 15
-10780 19143 -10790 19171 -7 16 26 17 606 17 l614 0 4785 -8505 c2632 -4677
4789 -8503 4793 -8502 7 2 13877 24644 13877 24656 0 9 -625 1121 -630 1121
-3 0 -2984 -5294 -6625 -11765 -3641 -6470 -6623 -11760 -6626 -11757 -9 9
-8299 14740 -8299 14747 0 3 276 5 613 5 l614 0 3527 -6269 c1941 -3449 3533
-6277 3540 -6286 9 -13 1179 2060 6629 11744 3640 6468 6621 11762 6625 11765
3 3 17 -15 32 -42 15 -26 714 -1267 1554 -2759z"/>
<path d="M32387 34889 c-40 -64 -15411 -27386 -15415 -27401 -4 -17 143 -18
3124 -18 l3129 1 4589 8155 c2524 4485 4592 8151 4596 8147 10 -12 6090
-10821 6090 -10827 0 -3 -2186 -7 -4857 -8 l-4858 -3 -307 -545 c-169 -300
-307 -548 -308 -552 0 -5 2750 -8 6111 -8 5480 0 6111 2 6105 15 -3 9 -1127
2008 -2497 4443 -1370 2435 -3165 5623 -3987 7085 -823 1461 -1498 2654 -1502
2650 -4 -5 -2211 -3930 -4905 -8723 -2694 -4793 -4899 -8716 -4900 -8718 -1
-1 -281 -1 -623 0 l-621 3 3835 6815 c2109 3748 4596 8168 5527 9822 930 1654
1692 3006 1693 3005 6 -7 9824 -17458 9824 -17462 0 -3 -3300 -5 -7334 -5
l-7334 0 -306 -544 c-168 -299 -306 -549 -306 -555 0 -13 17156 -16 17163 -3
5 10 -11699 20807 -11709 20804 -5 -1 -177 -300 -382 -665 -205 -364 -2975
-5286 -6155 -10937 l-5783 -10275 -617 -3 c-339 -1 -617 0 -617 2 0 2 2469
4391 5486 9753 3018 5361 6067 10780 6777 12041 710 1261 1293 2289 1297 2285
4 -4 2488 -4418 5520 -9808 3033 -5390 6080 -10806 6771 -12035 l1258 -2235
-9810 -3 -9809 -2 -24 -38 c-32 -50 -583 -1032 -592 -1054 -6 -17 525 -18
11056 -18 10570 0 11062 1 11058 18 -3 9 -3258 5798 -7233 12862 -3976 7065
-7442 13225 -7703 13690 -261 465 -480 851 -487 859 -11 11 -16 9 -28 -10z
m7742 -13723 c4230 -7518 7690 -13670 7688 -13672 -2 -2 -4970 -3 -11039 -2
l-11036 3 298 530 299 530 9820 3 c5808 1 9821 6 9821 11 0 9 -13556 24109
-13570 24124 -7 8 -13568 -24078 -13578 -24115 -4 -17 22 -18 627 -16 l631 3
6153 10933 c3385 6014 6157 10934 6162 10934 7 0 11664 -20705 11682 -20750 4
-9 -1711 -12 -8557 -12 -4814 0 -8560 4 -8558 9 2 4 136 245 298 534 l295 526
7348 1 c4041 0 7347 2 7347 4 0 12 -9847 17499 -9854 17500 -9 1 -11076
-19658 -11076 -19675 0 -5 253 -8 636 -7 l636 3 4895 8705 c2691 4788 4897
8711 4901 8718 5 8 1476 -2596 3983 -7049 2185 -3884 3978 -7068 3982 -7076 7
-11 -997 -13 -6082 -13 l-6089 0 301 535 301 535 4868 0 c2677 0 4868 2 4868
4 0 6 -6111 10869 -6120 10879 -4 5 -568 -988 -1253 -2205 -1436 -2552 -2635
-4683 -5726 -10175 l-2213 -3933 -3115 0 c-1806 0 -3113 4 -3111 9 2 5 3470
6170 7708 13700 l7704 13691 17 -28 c9 -15 3478 -6178 7708 -13696z"/>
<path d="M11770 31155 c0 -16 3316 -5895 3324 -5892 5 2 755 1328 1667 2948
l1657 2944 -415 3 c-228 1 -599 1 -824 0 l-409 -3 95 -170 c68 -120 94 -175
88 -186 -27 -55 -608 -1077 -611 -1074 -2 2 -185 324 -406 717 l-402 713 -632
3 c-348 1 -632 0 -632 -3 0 -3 324 -581 720 -1284 l720 -1278 -307 -547 c-295
-525 -309 -546 -323 -525 -8 12 -472 835 -1031 1828 l-1015 1806 -632 3 c-348
1 -632 0 -632 -3z m2282 -1840 c566 -1006 1032 -1833 1036 -1837 8 -8 635
1098 635 1117 -1 6 -323 582 -717 1280 l-716 1270 612 3 c511 2 615 0 623 -12
6 -7 190 -333 410 -724 220 -391 404 -710 409 -708 8 2 411 707 596 1041 l39
70 -62 110 c-35 61 -77 136 -96 168 l-32 57 801 0 c730 0 802 -1 796 -16 -19
-48 -3292 -5852 -3298 -5846 -5 6 -3162 5612 -3265 5800 l-35 62 617 -2 617
-3 1030 -1830z"/>
<path d="M32332 19238 c-38 -67 -635 -1129 -1327 -2358 -692 -1229 -1269
-2254 -1282 -2277 l-25 -43 826 0 c454 0 826 4 826 9 0 4 -76 144 -170 310
-93 166 -170 304 -170 308 0 19 454 813 461 806 4 -4 186 -325 404 -713 218
-388 399 -708 404 -713 4 -4 220 -6 479 -5 l472 3 -641 1140 c-353 627 -642
1145 -642 1150 0 10 438 792 453 808 4 4 400 -692 881 -1547 l874 -1556 478 0
479 0 -25 43 c-13 23 -620 1100 -1347 2392 -727 1293 -1325 2354 -1330 2358
-4 5 -39 -47 -78 -115z m1412 -2280 c729 -1296 1329 -2364 1332 -2372 6 -15
-38 -16 -452 -14 l-459 3 -876 1558 c-482 856 -878 1560 -881 1562 -3 3 -112
-184 -243 -415 -217 -386 -237 -423 -226 -446 10 -22 1180 -2104 1248 -2222
l25 -42 -462 2 -462 3 -404 720 c-223 396 -408 723 -413 728 -4 4 -115 -182
-245 -413 l-237 -422 171 -303 c93 -167 170 -306 170 -309 0 -3 -360 -6 -801
-6 -723 0 -801 2 -795 16 5 12 2561 4559 2644 4702 13 24 28 40 32 35 5 -4
605 -1069 1334 -2365z"/>
</g>
</svg>
