<?xml version="1.0" encoding="UTF-8"?>
<!DOCTYPE svg PUBLIC "-//W3C//DTD SVG 1.1//EN" "http://www.w3.org/Graphics/SVG/1.1/DTD/svg11.dtd">
<!-- Creator: CorelDRAW 2020 (64-Bit) -->
<svg xmlns="http://www.w3.org/2000/svg" xml:space="preserve" width="0.164555in" height="0.164472in" version="1.1" style="shape-rendering:geometricPrecision; text-rendering:geometricPrecision; image-rendering:optimizeQuality; fill-rule:evenodd; clip-rule:evenodd"
viewBox="0 0 35.73 35.71"
 xmlns:xlink="http://www.w3.org/1999/xlink"
 xmlns:xodm="http://www.corel.com/coreldraw/odm/2003">
 <defs>
  <style type="text/css">
   <![CDATA[
    .fil0 {fill:dimgray;fill-rule:nonzero}
   ]]>
  </style>
 </defs>
 <g id="Layer_x0020_1">
  <metadata id="CorelCorpID_0Corel-Layer"/>
  <path class="fil0" d="M35.44 8.96c-0.24,-2.35 -1.14,-4.43 -2.89,-6.1 -1.84,-1.75 -4.09,-2.53 -6.55,-2.66 -4.2,-0.23 -14.17,-0.37 -17.67,0.2 -4,0.65 -6.62,2.99 -7.73,6.94 -0.85,3.04 -0.68,17.05 -0.18,20.05 0.68,4.11 3.1,6.74 7.18,7.79 2.82,0.73 16.67,0.63 19.78,0.13 4.11,-0.66 6.76,-3.08 7.82,-7.14 0.82,-3.12 0.53,-16.4 0.25,-19.21zm-3.29 17.85l0 0c-0.48,3.12 -2.55,5.05 -5.69,5.4 -2.88,0.32 -15.75,0.49 -18.42,-0.26 -2.56,-0.72 -4.02,-2.47 -4.44,-5.05 -0.41,-2.46 -0.51,-14.74 -0.01,-18.03 0.47,-3.09 2.54,-5.02 5.66,-5.37 3.16,-0.36 14.55,-0.39 17.58,0.07 3.11,0.48 5.04,2.55 5.39,5.7 0.32,2.93 0.41,14.39 -0.07,17.54zm-14.28 -18.11l0 0c-5.06,-0 -9.16,4.1 -9.17,9.15 -0,5.06 4.1,9.16 9.16,9.17 5.06,0 9.16,-4.1 9.17,-9.16 0,-5.06 -4.1,-9.16 -9.15,-9.16zm-0.06 15.08l0 0c-3.27,-0.03 -5.9,-2.7 -5.87,-5.98 0.03,-3.27 2.7,-5.9 5.98,-5.87 3.27,0.03 5.9,2.7 5.87,5.98 -0.03,3.27 -2.7,5.9 -5.98,5.87zm11.73 -15.42l0 0c-0,1.18 -0.97,2.14 -2.15,2.14 -1.18,-0 -2.14,-0.97 -2.14,-2.15 0,-1.18 0.97,-2.14 2.15,-2.14 1.18,0 2.14,0.97 2.14,2.15z"/>
 </g>
</svg>
