<?xml version="1.0" encoding="UTF-8"?>
<!DOCTYPE svg PUBLIC "-//W3C//DTD SVG 1.1//EN" "http://www.w3.org/Graphics/SVG/1.1/DTD/svg11.dtd">
<!-- Creator: CorelDRAW 2020 (64-Bit) -->
<svg xmlns="http://www.w3.org/2000/svg" xml:space="preserve" width="0.151949in" height="0.151602in" version="1.1" style="shape-rendering:geometricPrecision; text-rendering:geometricPrecision; image-rendering:optimizeQuality; fill-rule:evenodd; clip-rule:evenodd"
viewBox="0 0 69.94 69.79"
 xmlns:xlink="http://www.w3.org/1999/xlink"
 xmlns:xodm="http://www.corel.com/coreldraw/odm/2003">
 <defs>
  <style type="text/css">
   <![CDATA[
    .fil0 {fill:dimgray;fill-rule:nonzero}
   ]]>
  </style>
 </defs>
 <g id="Layer_x0020_1">
  <metadata id="CorelCorpID_0Corel-Layer"/>
  <path class="fil0" d="M1.15 23.17l14.51 0 0 46.62 -14.51 0 0 -46.62zm23.6 0l13.9 0 0 6.38 0.19 0c1.94,-3.67 6.66,-7.53 13.72,-7.53 14.67,0 17.37,9.65 17.37,22.2l0 25.57 -14.48 0 0 -22.66c0,-5.41 -0.11,-12.36 -7.53,-12.36 -7.54,0 -8.69,5.89 -8.69,11.97l0 23.06 -14.49 0 0 -46.62zm-16.34 -23.17l0 0c4.64,0 8.4,3.77 8.4,8.4 0,4.64 -3.76,8.41 -8.4,8.41 -4.65,0 -8.41,-3.77 -8.41,-8.41 0,-4.63 3.76,-8.4 8.41,-8.4z"/>
 </g>
</svg>
