<?xml version="1.0" encoding="UTF-8"?>
<!DOCTYPE svg PUBLIC "-//W3C//DTD SVG 1.1//EN" "http://www.w3.org/Graphics/SVG/1.1/DTD/svg11.dtd">
<!-- Creator: CorelDRAW 2020 (64-Bit) -->
<svg xmlns="http://www.w3.org/2000/svg" xml:space="preserve" width="0.157165in" height="0.142362in" version="1.1" style="shape-rendering:geometricPrecision; text-rendering:geometricPrecision; image-rendering:optimizeQuality; fill-rule:evenodd; clip-rule:evenodd"
viewBox="0 0 17.73 16.06"
 xmlns:xlink="http://www.w3.org/1999/xlink"
 xmlns:xodm="http://www.corel.com/coreldraw/odm/2003">
 <defs>
  <style type="text/css">
   <![CDATA[
    .fil0 {fill:dimgray;fill-rule:nonzero}
   ]]>
  </style>
 </defs>
 <g id="Layer_x0020_1">
  <metadata id="CorelCorpID_0Corel-Layer"/>
  <path class="fil0" d="M8.09 7.98c-0.42,-0.54 -0.83,-1.07 -1.24,-1.61 -0.2,-0.26 -0.41,-0.54 -0.62,-0.81 -0.21,-0.27 -0.42,-0.54 -0.61,-0.81l-1.23 -1.61c-0.21,-0.26 -0.41,-0.53 -0.62,-0.8 -0.11,-0.14 -0.18,-0.25 -0.31,-0.41 -0.08,-0.1 -0.24,-0.28 -0.28,-0.39 1.96,-0.02 1.48,-0.15 2.14,0.71l9.19 12.17 -1.5 0.01 -4.92 -6.45zm-8.09 -7.98l3.36 4.41c0.51,0.68 2.97,3.81 3.32,4.37l-0.78 0.91c-0.1,0.1 -0.11,0.13 -0.2,0.24 -0.08,0.1 -0.13,0.12 -0.21,0.22l-0.59 0.68c-0.08,0.1 -0.13,0.13 -0.21,0.23l-4.17 4.77c-0.07,0.08 -0.11,0.14 -0.18,0.24l2.73 -0 2.43 -2.81c0.07,-0.08 0.11,-0.1 0.17,-0.18l1.51 -1.74c0.06,-0.07 0.1,-0.09 0.16,-0.16 0.19,-0.24 0.4,-0.48 0.62,-0.7 0.01,0.01 0.02,0.01 0.02,0.02l0.27 0.33c0.09,0.12 0.17,0.23 0.27,0.36l1.61 2.1c0.38,0.49 0.71,0.93 1.08,1.41 0.13,0.17 0.95,1.33 1.09,1.37l5.42 -0c-0.15,-0.29 -0.65,-0.89 -0.88,-1.18l-5.23 -6.91c-0.25,-0.33 -0.68,-0.83 -0.86,-1.16l1.49 -1.72c0.08,-0.08 0.1,-0.13 0.18,-0.22l1.3 -1.47c0.08,-0.11 0.08,-0.11 0.18,-0.21 0.08,-0.08 0.1,-0.13 0.18,-0.22 0.39,-0.45 0.95,-1.02 1.3,-1.47l0.36 -0.43c0.08,-0.09 0.12,-0.11 0.19,-0.2 0.24,-0.31 0.5,-0.54 0.73,-0.87l-2.72 0 -1.96 2.26c-0.11,0.11 -0.14,0.17 -0.28,0.32 -0.07,0.07 -0.08,0.1 -0.14,0.18l-1.4 1.6c-0.15,0.18 -0.57,0.69 -0.73,0.76 -0.13,-0.28 -0.73,-1 -0.95,-1.3l-2.43 -3.22c-0.12,-0.16 -0.37,-0.53 -0.51,-0.6l-5.55 -0z"/>
 </g>
</svg>
